# xmcd
#
# Track frame offsets: 
#        150
#        1395
#        25075
#        48992
#        71235
#        74112
#        99395
#        117725
#        142452
#        164872
#        184657
#        217802
#        219972
#        243082
#        261455
#        280885
#
# Disc length: 3808 seconds
#
# Revision: 2
# Processed by: cddbd v1.5.2PL0 Copyright (c) Steve Scherf et al.
# Submitted via: ExactAudioCopy v0.95b4
#
DISCID=010ede10
DTITLE=A Few Good Men - A Thang for You
DYEAR=1994
DGENRE=R&B
TTITLE0=Five Dollars
TTITLE1=A Lil' Somethin'
TTITLE2=Young Girl
TTITLE3=A Thang for you
TTITLE4=Please Baby Don't Cry (Interlude)
TTITLE5=Have I Never
TTITLE6=Will You Love Me Tomorrow
TTITLE7=A Good Man
TTITLE8=Chillin'
TTITLE9=That's the Way
TTITLE10=1-900-G-Man (How I Say I Love)
TTITLE11=Bankhead Mac Daddy (Interlude)
TTITLE12=Don't Cry (Behind My Back)
TTITLE13=Sexy Day
TTITLE14=Sounthern Girl
TTITLE15=Ten Dollars (Interlude)
EXTD=
EXTT0=
EXTT1=
EXTT2=
EXTT3=
EXTT4=
EXTT5=
EXTT6=
EXTT7=
EXTT8=
EXTT9=
EXTT10=
EXTT11=
EXTT12=
EXTT13=
EXTT14=
EXTT15=
PLAYORDER=
